<?xml version="1.0" encoding="UTF-8"?><svg id="Half_Sun_-" xmlns="http://www.w3.org/2000/svg" xmlns:xlink="http://www.w3.org/1999/xlink" viewBox="0 0 1061.12 141.67"><defs><style>.cls-1{clip-path:url(#clippath);}.cls-2{fill:none;}.cls-2,.cls-3,.cls-4,.cls-5,.cls-6,.cls-7{stroke-width:0px;}.cls-3{fill:#f7da63;}.cls-3,.cls-4,.cls-5,.cls-6{isolation:isolate;opacity:.85;}.cls-4{fill:#da2f2b;}.cls-5{fill:#eb8240;}.cls-6{fill:#9d1c20;}.cls-7{fill:#212f31;}</style><clipPath id="clippath"><ellipse class="cls-2" cx="68.19" cy="70.83" rx="68.19" ry="70.83"/></clipPath></defs><g class="cls-1"><rect class="cls-6" x="-72.38" y="110.06" width="280.63" height="48.87"/><rect class="cls-4" x="-72.12" y="73.65" width="280.63" height="31.92"/><rect class="cls-5" x="-72.12" y="36.65" width="280.63" height="31.92"/><rect class="cls-3" x="-71.71" y="-17.07" width="279.47" height="48.87"/></g><path class="cls-7" d="m225.61,64.28c0,12.48-9.36,20.24-24.32,20.24h-11.28v15.44h-12.96v-56h24.24c14.96,0,24.32,7.76,24.32,20.32Zm-13.12,0c0-6.16-4-9.76-11.92-9.76h-10.56v19.44h10.56c7.92,0,11.92-3.6,11.92-9.68Z"/><path class="cls-7" d="m234.73,40.6h12.48v59.36h-12.48v-59.36Z"/><path class="cls-7" d="m296.89,75.4v24.56h-11.68v-5.36c-2.32,3.92-6.8,6-13.12,6-10.08,0-16.08-5.6-16.08-13.04s5.36-12.88,18.48-12.88h9.92c0-5.36-3.2-8.48-9.92-8.48-4.56,0-9.28,1.52-12.4,4l-4.48-8.72c4.72-3.36,11.68-5.2,18.56-5.2,13.12,0,20.72,6.08,20.72,19.12h0Zm-12.48,10.96v-4.4h-8.56c-5.84,0-7.68,2.16-7.68,5.04,0,3.12,2.64,5.2,7.04,5.2,4.16,0,7.76-1.92,9.2-5.84h0Z"/><path class="cls-7" d="m352.17,75.32v24.64h-12.48v-22.72c0-6.96-3.2-10.16-8.72-10.16-6,0-10.32,3.68-10.32,11.6v21.28h-12.48v-43.04h11.92v5.04c3.36-3.68,8.4-5.68,14.24-5.68,10.16,0,17.84,5.92,17.84,19.04h0Z"/><path class="cls-7" d="m390.97,40.6h1.6v74.88h-1.6V40.6Z"/><path class="cls-7" d="m481.05,64.28c0,12.48-9.36,20.24-24.32,20.24h-11.28v15.44h-12.96v-56h24.24c14.96,0,24.32,7.76,24.32,20.32h0Zm-13.12,0c0-6.16-4-9.76-11.92-9.76h-10.56v19.44h10.56c7.92,0,11.92-3.6,11.92-9.68Z"/><path class="cls-7" d="m527.05,75.4v24.56h-11.68v-5.36c-2.32,3.92-6.8,6-13.12,6-10.08,0-16.08-5.6-16.08-13.04s5.36-12.88,18.48-12.88h9.92c0-5.36-3.2-8.48-9.92-8.48-4.56,0-9.28,1.52-12.4,4l-4.48-8.72c4.72-3.36,11.68-5.2,18.56-5.2,13.12,0,20.72,6.08,20.72,19.12h0Zm-12.48,10.96v-4.4h-8.56c-5.84,0-7.68,2.16-7.68,5.04,0,3.12,2.64,5.2,7.04,5.2,4.16,0,7.76-1.92,9.2-5.84Z"/><path class="cls-7" d="m535.61,78.44c0-12.96,10-22.16,24-22.16,9.04,0,16.16,3.92,19.28,10.96l-9.68,5.2c-2.32-4.08-5.76-5.92-9.68-5.92-6.32,0-11.28,4.4-11.28,11.92s4.96,11.92,11.28,11.92c3.92,0,7.36-1.76,9.68-5.92l9.68,5.28c-3.12,6.88-10.24,10.88-19.28,10.88-14,0-24-9.2-24-22.16Z"/><path class="cls-7" d="m604.25,83.08l-6,5.92v10.96h-12.48v-59.36h12.48v33.6l18.24-17.28h14.88l-17.92,18.24,19.52,24.8h-15.12l-13.6-16.88h0Z"/><path class="cls-7" d="m666.09,40.6h1.6v74.88h-1.6V40.6Z"/><path class="cls-7" d="m707.61,43.96h25.44c18.32,0,30.88,11.04,30.88,28s-12.56,28-30.88,28h-25.44v-56Zm24.8,45.36c11.12,0,18.4-6.64,18.4-17.36s-7.28-17.36-18.4-17.36h-11.84v34.72h11.84Z"/><path class="cls-7" d="m771.28,43.96c0-3.92,3.12-6.96,7.76-6.96s7.76,2.88,7.76,6.72c0,4.16-3.12,7.2-7.76,7.2s-7.76-3.04-7.76-6.96Zm1.52,12.96h12.48v43.04h-12.48v-43.04Z"/><path class="cls-7" d="m792.72,95.97l4.16-8.96c3.84,2.48,9.68,4.16,14.96,4.16,5.76,0,7.92-1.52,7.92-3.92,0-7.04-26,.16-26-17.04,0-8.16,7.36-13.92,19.92-13.92,5.92,0,12.48,1.36,16.56,3.76l-4.16,8.88c-4.24-2.4-8.48-3.2-12.4-3.2-5.6,0-8,1.76-8,4,0,7.36,26,.24,26,17.2,0,8-7.44,13.68-20.32,13.68-7.28,0-14.64-2-18.64-4.64h0Z"/><path class="cls-7" d="m836.16,78.44c0-12.96,10-22.16,24-22.16,9.04,0,16.16,3.92,19.28,10.96l-9.68,5.2c-2.32-4.08-5.76-5.92-9.68-5.92-6.32,0-11.28,4.4-11.28,11.92s4.96,11.92,11.28,11.92c3.92,0,7.36-1.76,9.68-5.92l9.68,5.28c-3.12,6.88-10.24,10.88-19.28,10.88-14,0-24-9.2-24-22.16Z"/><path class="cls-7" d="m882.88,78.44c0-12.96,10-22.16,23.68-22.16s23.6,9.2,23.6,22.16-9.92,22.16-23.6,22.16-23.68-9.2-23.68-22.16Zm34.64,0c0-7.44-4.72-11.92-10.96-11.92s-11.04,4.48-11.04,11.92,4.8,11.92,11.04,11.92,10.96-4.48,10.96-11.92Z"/><path class="cls-7" d="m980,56.92l-18.16,43.04h-12.88l-18.08-43.04h12.88l11.92,29.28,12.32-29.28h12Z"/><path class="cls-7" d="m1025.84,81.97h-32.56c1.2,5.36,5.76,8.64,12.32,8.64,4.56,0,7.84-1.36,10.8-4.16l6.64,7.2c-4,4.56-10,6.96-17.76,6.96-14.88,0-24.56-9.36-24.56-22.16s9.84-22.16,22.96-22.16,22.4,8.48,22.4,22.32c0,.96-.16,2.32-.24,3.36h0Zm-32.72-7.28h21.2c-.88-5.44-4.96-8.96-10.56-8.96s-9.76,3.44-10.64,8.96h0Z"/><path class="cls-7" d="m1061.12,56.28v11.52c-1.04-.08-1.84-.16-2.8-.16-6.88,0-11.44,3.76-11.44,12v20.32h-12.48v-43.04h11.92v5.68c3.04-4.16,8.16-6.32,14.8-6.32h0Z"/></svg>