<svg width="11" height="15" viewBox="0 0 11 15" fill="none" xmlns="http://www.w3.org/2000/svg">
<path d="M5.84375 0C2.90469 0 0 2.05567 0 5.38261C0 7.49838 1.13437 8.70053 1.82187 8.70053C2.10547 8.70053 2.26875 7.87105 2.26875 7.63663C2.26875 7.35713 1.58984 6.76207 1.58984 5.59899C1.58984 3.18268 3.34297 1.46962 5.61172 1.46962C7.5625 1.46962 9.00625 2.6327 9.00625 4.76951C9.00625 6.36536 8.39609 9.3587 6.41953 9.3587C5.70625 9.3587 5.09609 8.81774 5.09609 8.04235C5.09609 6.90632 5.85234 5.80636 5.85234 4.63427C5.85234 2.64472 3.1625 3.00536 3.1625 5.40965C3.1625 5.91455 3.22266 6.47355 3.4375 6.93337C3.04219 8.71856 2.23438 11.3783 2.23438 13.2176C2.23438 13.7856 2.31172 14.3446 2.36328 14.9126C2.46068 15.0268 2.41198 15.0148 2.56094 14.9577C4.00469 12.884 3.95313 12.4783 4.60625 9.76443C4.95859 10.4677 5.86953 10.8464 6.59141 10.8464C9.63359 10.8464 11 7.73581 11 4.9318C11 1.94748 8.54219 0 5.84375 0Z" fill="white"/>
</svg>
