<svg width="449" height="512" viewBox="0 0 449 512" fill="none" xmlns="http://www.w3.org/2000/svg">
<path d="M448.004 209.9C404.004 210 361.004 196.3 325.204 170.7V349.4C325.204 382.5 315.104 414.8 296.204 442C277.304 469.2 250.604 490 219.604 501.6C188.604 513.2 154.804 515.1 122.704 506.9C90.6039 498.7 61.8039 481 40.0039 456.1C18.2039 431.2 4.70391 400.1 1.00391 367.2C-2.69609 334.3 3.90391 301.1 19.6039 272C35.3039 242.9 59.6039 219.3 89.2039 204.3C118.804 189.3 152.104 183.8 184.904 188.3V278.2C169.904 273.5 153.804 273.6 138.904 278.6C124.004 283.6 111.004 293.2 101.904 305.9C92.8039 318.6 87.9039 334 88.0039 349.8C88.1039 365.6 93.2039 380.8 102.504 393.5C111.804 406.2 124.904 415.6 139.904 420.4C154.904 425.2 171.004 425.2 185.904 420.3C200.804 415.4 213.904 405.9 223.104 393.2C232.304 380.5 237.304 365.1 237.304 349.4V0H325.304C325.204 7.4 325.904 14.9 327.204 22.2C330.304 38.5 336.604 54.1 345.904 67.9C355.204 81.7 367.204 93.5 381.104 102.5C401.004 115.6 424.304 122.6 448.104 122.6V210L448.004 209.9Z" fill="white"/>
</svg>
