<svg width="13" height="16" viewBox="0 0 13 16" fill="none" xmlns="http://www.w3.org/2000/svg">
<path d="M6.03571 0.5H9.63683C10.0054 0.5 10.3594 0.649414 10.6205 0.913086L12.5908 2.90234C12.852 3.16602 13 3.52344 13 3.89551V10.3438C13 11.1201 12.3761 11.75 11.6071 11.75H6.03571C5.26674 11.75 4.64286 11.1201 4.64286 10.3438V1.90625C4.64286 1.12988 5.26674 0.5 6.03571 0.5ZM1.39286 4.25H3.71429V6.125H1.85714V13.625H7.42857V12.6875H9.28571V14.0938C9.28571 14.8701 8.66183 15.5 7.89286 15.5H1.39286C0.623884 15.5 0 14.8701 0 14.0938V5.65625C0 4.87988 0.623884 4.25 1.39286 4.25Z" fill="white"/>
</svg>
