<svg width="28" height="32" viewBox="0 0 28 32" fill="none" xmlns="http://www.w3.org/2000/svg">
<path d="M13.1625 0.36875L3.875 10.5875C3.63125 10.85 3.5 11.2 3.5 11.5562C3.5 12.3562 4.14375 13 4.94375 13H6.5L1.9125 17.5875C1.65 17.85 1.5 18.2125 1.5 18.5875C1.5 19.3687 2.13125 20 2.9125 20H5L0.3375 25.5938C0.11875 25.8562 0 26.1875 0 26.5313C0 27.3438 0.65625 28 1.46875 28H12V30C12 31.1062 12.8938 32 14 32C15.1062 32 16 31.1062 16 30V28H26.5313C27.3438 28 28 27.3438 28 26.5313C28 26.1875 27.8813 25.8562 27.6625 25.5938L23 20H25.0875C25.8687 20 26.5 19.3687 26.5 18.5875C26.5 18.2125 26.35 17.85 26.0875 17.5875L21.5 13H23.0562C23.85 13 24.5 12.3562 24.5 11.5562C24.5 11.2 24.3687 10.85 24.125 10.5875L14.8375 0.36875C14.625 0.13125 14.3187 0 14 0C13.6813 0 13.375 0.13125 13.1625 0.36875Z" fill="#F1F6F9"/>
</svg>
